<svg xmlns="http://www.w3.org/2000/svg" viewBox="0 0 240 41" height="41" width="240"><path fill="none" d="M0 0h240v41H0z"/><g font-size="28" font-family="Trend Sans" letter-spacing="-3" text-anchor="middle" fill="#477dca"><path d="M1.37 20H4.84v-8.428L13.55 20h4.34l-9.52-9.324L17.441.316h-4.228L4.841 9.948V.316H1.37zM20.463 20h12.796v-3.192h-9.324V.316h-3.472zM35.231 11.852c0 5.88 3.22 8.512 8.148 8.512 4.928 0 8.26-2.632 8.26-8.512V.316h-3.472v11.508c0 3.78-1.82 5.348-4.788 5.348s-4.676-1.568-4.676-5.32V.316h-3.472zM56.572 20h6.3c4.48 0 7.868-2.072 7.868-5.572 0-2.1-1.26-3.696-3.976-4.48 2.212-.784 3.444-2.296 3.444-4.424 0-3.108-2.268-5.208-7.336-5.208h-6.3zm5.628-8.652c3.668 0 4.788 1.372 4.788 2.716 0 1.456-1.008 2.744-3.948 2.744h-2.996v-5.46zm.84-7.84c2.548 0 3.556 1.092 3.556 2.436 0 1.484-1.232 2.94-4.06 2.912h-2.492V3.508zM74.791 20h3.472V.316h-3.472zM104.237 14.68c0-2.576-1.26-4.312-5.656-6.02-2.772-1.008-3.836-1.792-3.836-3.052 0-1.372.952-2.52 3.024-2.52 1.512 0 3.248.672 4.396 1.316l1.12-3.08C102.025.596 99.953-.02 97.853-.02c-4.2 0-6.608 2.744-6.608 5.712 0 2.352 1.316 4.172 5.152 5.572 3.556 1.316 4.284 2.1 4.284 3.416 0 1.26-1.064 2.408-3.388 2.408-1.764 0-3.724-.672-5.348-1.764l-1.204 3.136c1.792 1.092 4.116 1.876 6.44 1.876 4.396 0 7.056-2.156 7.056-5.656zM107.955 20h12.796v-3.192h-9.324V.316h-3.472zM121.386 10.144c0 5.824 4.48 10.164 10.5 10.164s10.528-4.368 10.528-10.164c0-5.88-4.424-10.164-10.528-10.164-5.908 0-10.5 4.48-10.5 10.164zm3.752.056c0-4.032 2.884-7.084 6.776-7.084 3.948 0 6.776 3.052 6.776 7.084 0 4.004-2.968 7.056-6.776 7.056s-6.776-3.108-6.776-7.056zM146.773.316h-3.724l9.128 19.936h1.176L162.481.316h-3.64l-6.048 13.44zM165.182 20h12.796v-3.192h-9.324v-4.704h8.456v-3.08h-8.456V3.508h9.324V.316h-12.796zM182.361 20h3.472V7.792l12.348 12.348h.924V.316h-3.472v12.572L183.453.204h-1.092zM204.299 20h3.472V.316h-3.472zM210.063 18.88s1.904 1.456 5.012 1.456c4.816 0 6.58-2.632 6.58-7.084V.316h-3.528v12.908c0 2.156-.392 3.892-3.108 3.892-2.016 0-3.64-1.092-3.64-1.092zM226.627 20h12.796v-3.192H230.1v-4.704h8.456v-3.08H230.1V3.508h9.324V.316h-12.796z"/></g><g font-size="20" font-family="StratumNo2" letter-spacing="6" text-anchor="middle" fill="#477dca"><path d="M80.854 40v-6.24h5.72v-1.3h-5.72v-4.48h6.28v-1.3h-7.68V40zM95.415 40h1.4v-5.62h3.62l2.74 5.62h1.5l-2.74-5.64c1.14-.18 1.86-1.02 1.86-2.2V28.9c0-1.3-.92-2.22-2.2-2.22h-6.18zm1.4-12.02h4.42c.74 0 1.16.44 1.16 1.16v2.8c0 .72-.42 1.16-1.16 1.16h-4.42zM114.673 26.68h-1.4V40h1.4zM132.313 38.74h-6.94l6.9-10.82v-1.24h-8.3v1.24h6.76l-6.86 10.82V40h8.44zM141.423 40h6.14c1.26 0 2.18-.92 2.18-2.18V34.8c0-.9-.48-1.52-1.14-1.72.64-.32 1.02-.96 1.02-1.7v-2.52c0-1.28-.92-2.18-2.18-2.18h-6.02zm1.4-6.24h4.42c.68 0 1.1.46 1.1 1.16v2.64c0 .72-.4 1.16-1.16 1.16h-4.36zm0-1.26v-4.54h4.24c.72 0 1.16.44 1.16 1.16v2.22c0 .68-.38 1.16-1.06 1.16zM160.446 26.68h-1.4V40h1.4z"/></g></svg>