<?xml version="1.0" encoding="UTF-8" standalone="no"?>
<svg
   xmlns:dc="http://purl.org/dc/elements/1.1/"
   xmlns:cc="http://creativecommons.org/ns#"
   xmlns:rdf="http://www.w3.org/1999/02/22-rdf-syntax-ns#"
   xmlns:svg="http://www.w3.org/2000/svg"
   xmlns="http://www.w3.org/2000/svg"
   viewBox="0 0 354.26636 234.27185"
   height="234.27185"
   width="354.26636"
   xml:space="preserve"
   version="1.1"
   id="svg2"><metadata
     id="metadata8"><rdf:RDF><cc:Work
         rdf:about=""><dc:format>image/svg+xml</dc:format><dc:type
           rdf:resource="http://purl.org/dc/dcmitype/StillImage" /><dc:title></dc:title></cc:Work></rdf:RDF></metadata><defs
     id="defs6"><clipPath
       id="clipPath18"
       clipPathUnits="userSpaceOnUse"><path
         id="path20"
         d="m 0,0 396.31,0 0,262.41 L 0,262.41 0,0 Z" /></clipPath><clipPath
       id="clipPath136"
       clipPathUnits="userSpaceOnUse"><path
         style="clip-rule:evenodd"
         id="path138"
         d="m 0.00125,-0.12134 595.44,0 0,842.04 -595.44,0 0,-842.04 z" /></clipPath><clipPath
       id="clipPath354"
       clipPathUnits="userSpaceOnUse"><path
         style="clip-rule:evenodd"
         id="path356"
         d="m 0.00125,-0.12134 595.44,0 0,842.04 -595.44,0 0,-842.04 z" /></clipPath><clipPath
       id="clipPath472"
       clipPathUnits="userSpaceOnUse"><path
         style="clip-rule:evenodd"
         id="path474"
         d="m 0.00125,-0.12134 595.44,0 0,842.04 -595.44,0 0,-842.04 z" /></clipPath><clipPath
       id="clipPath530"
       clipPathUnits="userSpaceOnUse"><path
         style="clip-rule:evenodd"
         id="path532"
         d="m 0.00125,-0.12134 595.44,0 0,842.04 -595.44,0 0,-842.04 z" /></clipPath></defs><g
     transform="matrix(1.25,0,0,-1.25,-222.28579,838.55698)"
     id="g10"><g
       style="fill:#000000"
       transform="matrix(3.9418475,0,0,2.6140761,177.77331,483.42811)"
       id="g12"><g
         style="fill:#000000"
         transform="scale(0.18168,0.27438)"
         id="g14"><g
           style="fill:#000000"
           clip-path="url(#clipPath18)"
           id="g16"><path
             id="path22"
             style="fill:#000000;fill-opacity:1;fill-rule:evenodd;stroke:#0073cc;stroke-width:0.14;stroke-linecap:butt;stroke-linejoin:round;stroke-miterlimit:10;stroke-dasharray:none;stroke-opacity:1"
             d="m 75.91,158.3 29.65,0 0,-47.8 -36.964,0 0.589,3.98 0.834,3.82 1.203,3.74 1.693,3.6 1.915,3.47 2.528,3.27 2.994,3.01 1.202,3 0.589,2.74 0,2.77 -0.221,2.53 -0.736,2.5 -1.08,2.42 -1.202,2.27 -1.424,2.41 -1.57,2.27 z m -28.347,38.58 -0.466,-1.33 -0.614,-1.2 -0.711,-1.21 -0.589,-1.21 -0.369,-1.18 0.246,-1.32 0.957,-1.21 2.528,2.53 -0.123,1.06 0.123,1.09 0.098,1.09 -0.098,1.06 -0.246,0.97 -0.736,0.86 z m 63.047,9.6 0,-0.74 -9.37,0 9.37,0.74 z m -71.808,3.71 1.202,-2.15 1.571,-2.18 1.914,-1.79 2.037,-1.45 2.283,-1.18 2.282,-0.73 2.528,-0.24 2.405,0.24 2.405,0.85 2.381,1.44 2.061,2.63 1.301,-2.51 0.859,-2.65 0.466,-2.77 0.123,-2.88 -0.245,-3.12 -1.301,-0.48 -1.325,-0.85 -1.08,-1.06 -1.08,-1.33 -1.08,-1.2 -1.203,-1.21 1.547,-1.33 0.859,-1.17 0.343,-1.33 -0.122,-1.32 -0.467,-1.21 -0.736,-1.21 -0.712,-1.18 -0.834,-1.2 -0.614,-1.21 -0.343,-1.21 0,-1.21 0.589,-1.06 1.079,-1.09 1.915,-1.2 -2.16,-4.8 -1.546,-4.81 -1.08,-4.8 -0.614,-4.91 -0.466,-5.19 -0.245,-5.15 -3.853,4.8 -3.363,5.15 -2.871,5.66 -2.405,5.77 -1.915,6.13 -1.57,6.12 -0.958,6.36 -0.466,6.36 -0.123,6.37 0.467,6.36 0.859,6.12 1.301,6.01 z m -9.965,7.92 1.326,-0.23 1.325,-0.12 1.325,0.12 1.325,0 1.301,0 1.203,-0.12 0.957,-0.35 0.736,-0.86 0.467,-1.18 -1.547,-0.38 -1.816,0.12 -1.669,0.5 -1.816,0.71 -1.546,0.85 -1.571,0.94 z m -1.325,0.86 0.614,-0.36 0.711,-0.5 -0.466,0.27 -0.368,0.23 -0.491,0.36 z m -27.36475,36.99 110.46275,0 0,-41.2 -7.46,0.61 -7.557,0.36 -7.559,0 -7.682,-0.36 -2.037,0.36 -2.16,0 -2.282,-0.36 -2.283,-0.38 -2.282,-0.47 -2.283,-0.35 -2.282,-0.12 -2.283,0.23 -2.159,0.71 -2.037,1.33 2.282,1.79 1.792,1.95 1.325,2.15 0.957,2.41 0.712,2.62 0.613,2.65 0.369,2.65 0.343,2.63 0.491,2.65 0.712,2.65 0.834,2.38 1.325,2.3 1.571,2.03 -0.491,1.44 -0.957,1.21 -1.202,0.86 -1.424,0.35 -1.571,-0.24 -3.116,0.59 -3.117,0.47 -3.019,0.12 -2.872,-0.12 -2.65,-0.47 -2.528,-0.85 -2.16,-1.18 -2.037,-1.8 -1.669,-2.29 -1.448,-2.77 -0.711,-1.92 -0.491,-2.26 -0.246,-2.3 0,-2.27 0,-2.41 0,-2.15 -0.122,-1.95 -0.344,-1.79 -0.613,-1.45 -3.706,0.98 -3.731,1.2 -3.853,1.18 -3.829,1.33 -3.951,1.2 -3.853,0.86 -3.853,0.7 -3.9516,0.12 -3.8531,-0.35 -3.82862,-0.97 0.24542,-2.89 0.8344,-2.62 1.448,-2.53 1.6689,-2.27 2.1598,-2.18 2.2824,-2.03 2.6504,-2.03 2.626,-1.95 2.774,-1.91 2.748,-2.03 2.651,-1.95 2.405,-2.03 2.282,-2.15 1.915,-2.18 2.994,-6.83 2.282,-6.75 1.571,-6.83 0.957,-6.98 0.614,-6.95 0.098,-6.98 -0.098,-6.95 -0.368,-7.1 -0.369,-6.95 -0.245,-7.1 -0.221,-6.95 0,-7.09 0.344,-6.98 0.859,-6.95 1.301,-6.984 1.938,-6.832 2.626,-6.862 -0.245,-4.418 0.245,-4.447 0.491,-4.565 0.835,-4.565 0.957,-4.683 1.08,-4.564 1.08,-4.565 1.079,-4.565 0.958,-4.565 0.736,-4.447 0.466,-4.447 0,-4.33 -0.343,-4.182 -0.982,-4.093 -1.546,-3.976 -2.16,-3.829 2.528,-2.5324 1.791,0.2356 1.915,0 1.914,-0.1178 1.939,-0.1178 1.914,-0.1178 1.792,0.2356 1.816,0.3534 1.448,0.854 1.301,1.2072 0.245,3.004 -0.123,2.886 -0.589,2.739 -0.736,2.769 -0.712,2.768 -0.589,2.769 0,2.768 -0.122,2.857 -0.368,3.121 -0.246,3.152 -0.344,3.239 -0.245,3.24 -0.245,3.122 0.122,3.122 0.246,3.003 0.589,2.887 0.957,2.621 1.325,2.415 1.792,2.032 0,-60.5217 -65.18475,0 0,250.7767 z" /><path
             id="path24"
             style="fill:#000000;fill-opacity:1;fill-rule:evenodd;stroke:#0073cc;stroke-width:0.14;stroke-linecap:butt;stroke-linejoin:round;stroke-miterlimit:10;stroke-dasharray:none;stroke-opacity:1"
             d="m 158.4,182.95 2.16,-2.06 2.4,-2.03 2.38,-1.92 2.65,-1.94 2.53,-1.92 2.53,-2.03 2.38,-2.18 2.28,-2.27 1.94,-2.53 1.79,-2.77 1.33,-3 0.95,-3.24 -28.69,-36.02 -1.08,-4.56 -0.85,-4.57 -0.84,-4.68 -0.83,-4.57 -0.84,-4.562 -0.83,-4.565 -0.98,-4.447 -1.08,-4.329 -1.21,-4.182 -1.54,-4.212 -1.7,-3.858 -2.16,-3.828 -2.4,-3.593 -2.87,-3.387 -3.24,-3.004 -3.86,-2.857 -4.31,-2.533 -4.91,-2.297 0,-2.621 33.96,0 0.84,2.503 0.49,2.298 0.24,2.032 0,2.179 -0.12,2.15 0,2.268 0.12,2.768 1.67,2.886 1.33,3.122 1.2,3.24 0.96,3.357 0.83,3.505 0.74,3.475 0.59,3.593 0.73,3.505 0.59,3.593 0.71,3.475 0.74,3.357 0.96,3.389 1.2,3.12 1.33,3.12 1.54,2.74 1.92,2.65 2.16,2.42 2.65,2.15 2.99,1.79 3.49,1.45 4.09,1.2 0.84,-3.24 0.37,-3.24 0.1,-3.5 0,-3.48 0,-3.59 0.49,-3.74 0.71,-3.71 2.77,-2.651 2.75,-2.385 3.02,-2.297 -11.78,-36.49 48.62,0 0,-50.2137 -120.16,0 0,36.4017 43.22,141.365 z m 30.01,17.52 0.35,-1.21 0.49,-1.44 0.71,-1.56 0.86,-1.68 0.83,-1.68 0.71,-1.68 0.74,-1.79 0.47,-1.68 0.12,-1.68 -0.12,-1.71 -0.72,-1.56 -1.08,-1.44 -1.81,-1.18 -1.55,20.29 z m 5.28,6.36 7.31,-3.71 -0.59,-1.94 -0.49,-2.03 -0.46,-2.04 -0.49,-2.06 -0.59,-1.79 -0.96,-1.56 -1.08,-1.06 -0.49,1.79 -0.71,1.8 -0.86,1.79 -0.71,1.92 -0.59,1.94 -0.49,1.8 -0.13,1.8 0.37,1.67 0.96,1.68 z m -72.65,5.42 10.7,-3.38 10.8,-3.13 -21.5,0 0,6.51 z m 44.92,8.16 -0.96,-2.18 -0.49,-1.91 0.12,-1.8 0.49,-1.56 0.96,-1.44 1.08,-1.33 1.32,-1.21 1.43,-1.17 1.44,-1.21 1.45,-1.21 1.21,-1.32 1.08,-1.33 0.71,-1.44 0.24,-1.56 -0.12,-1.8 -0.59,-1.21 -0.74,-1.29 -0.83,-1.21 -1.08,-0.97 -1.2,-0.71 -1.33,-0.24 -1.54,0.36 0,2.77 -0.49,2.62 -0.72,2.53 -1.08,2.65 -0.98,2.5 0,0 -0.83,2.54 -0.71,2.26 -0.37,2.42 0.24,2.53 0.84,2.39 1.45,2.53 z m -7.56,35.55 76.94,0 0,-50.22 -15.49,-47.91 -0.59,3.12 -0.96,3 -1.44,2.89 -1.8,2.77 -2.28,2.65 -2.89,2.38 -3.37,2.3 -3.95,2.15 0.96,3 1.33,2.89 1.57,2.77 1.66,2.62 1.7,2.65 1.67,2.77 1.45,2.77 1.2,2.88 0.71,3.13 0.24,3.24 -1.57,2.5 -1.79,2.3 -2.16,1.91 -2.28,1.68 -2.4,1.44 -2.66,1.33 -2.74,1.09 -2.78,1.06 -2.87,0.97 -2.89,0.97 -2.75,0.94 -2.78,0.98 -2.62,0.94 -2.65,1.21 -2.41,1.2 -2.16,1.33 -2.04,1.68 -1.66,1.79 -1.45,2.04 -1.08,2.41 -0.84,2.65 -0.36,3.12 0,3.48 0.49,3.86 -2.29,1.91 -2.52,1.56 -2.65,1.09 -2.75,0.71 z m -37.36,0 26.19,0 -3.24,-0.71 -3.02,-0.85 -1.2,-1.56 -1.18,-1.09 -1.32,-0.71 -1.33,-0.74 -1.2,-0.94 -1.08,-1.32 2.03,-0.48 1.7,-0.85 1.2,-1.09 0.96,-1.33 0.59,-1.44 0.49,-1.56 0.24,-1.68 0.1,-1.68 0,-1.79 0,-1.68 0.12,-1.68 0.13,-1.68 0.24,-1.44 0.49,-1.33 0.71,-1.09 0.96,-0.82 1.33,-0.62 1.67,-0.24 2.16,0 2.52,-0.11 2.29,-0.71 2.16,-1.44 1.69,-1.8 1.2,-2.18 0,-1.56 -4.93,-0.94 -4.81,-0.39 -4.69,0.12 -4.66,0.5 -4.69,0.95 -4.56,1.08 -4.57,1.21 -4.69,1.45 0,34.22 z" /><path
             id="path26"
             style="fill:#000000;fill-opacity:1;fill-rule:evenodd;stroke:#0073cc;stroke-width:0.14;stroke-linecap:butt;stroke-linejoin:round;stroke-miterlimit:10;stroke-dasharray:none;stroke-opacity:1"
             d="m 248.79,95.009 26.55,0 -2.06,-3.24 -1.67,-3.357 -1.32,-3.476 -0.84,-3.622 -0.37,-3.947 -1.2,-4.211 -0.59,-4.329 -0.12,-4.565 0.12,-4.801 0.25,-4.682 0.34,-4.801 0.25,-4.8 0,-4.565 -0.25,-4.565 -0.71,-4.329 -1.08,-0.589 -0.61,-0.737 -0.23,-0.824 0,-0.972 0.1,-1.09 0,-0.942 -0.1,-0.972 -0.36,-0.707 -1.33,-1.208 -1.2,-1.443 -3.12,4.094 -2.65,4.182 -2.04,4.565 -1.54,4.683 -1.21,5.183 -1.07,5.625 -0.86,6.244 -0.59,6.744 -0.37,7.333 -0.12,7.805 0,16.316 z m 67.24,9.251 3.73,-4.07 4.08,-3.738 4.32,-3.476 4.44,-3.357 4.32,-3.357 4.32,-3.505 4.19,-3.593 3.86,-4.094 0.71,-2.15 0.74,-2.15 0.58,-2.061 0.37,-2.032 0,-2.18 -0.49,-2.15 0.37,-3.593 0.71,-3.504 0.96,-3.358 0.98,-3.357 0.83,-3.357 0.47,-3.24 -0.12,-3.357 0.49,-1.709 0.49,-1.56 0.22,-1.561 0,-1.414 -0.47,-1.561 0.96,-1.826 0.49,-1.796 0,-1.797 -0.24,-1.914 -0.25,-2.062 -0.12,-2.15 0.12,-2.15 -0.12,-0.736 0.24,-0.471 0.47,-0.471 0.37,-0.501 0.12,-0.471 -0.49,-0.619 3.85,-1.178 4.08,-1.089 4.1,-0.854 -4.45,-2.2681 -6.13,-2.5327 -6.48,-2.1499 -6.85,-1.6787 -7.09,-1.20754 -7.44,-0.70681 -7.8,-0.26505 -7.31,0.26505 -6.97,0.58902 -6.73,1.08973 -6.36,1.3252 -6.13,1.7966 -5.74,2.2677 -5.53,2.6505 -3.26,1.797 5.05,0.854 -0.36,2.267 -0.13,2.651 0,2.768 -0.12,2.739 -0.1,2.533 -0.24,2.032 -0.37,2.415 -0.12,2.15 0.12,1.944 0.12,2.15 0.25,2.415 0.95,5.271 0.84,5.272 0.71,5.183 0.25,5.272 -0.13,5.419 -0.71,5.507 1.57,3.122 2.04,2.769 2.41,2.532 2.62,2.386 2.65,2.297 2.87,2.268 2.78,2.415 1.91,1.207 1.69,1.679 1.67,1.796 1.57,2.033 4.2,0 0,-30.512 0,-4.417 0.25,-3.858 0.34,-3.24 0.49,-2.768 0.59,-2.15 0.74,-1.679 1.2,-1.443 1.54,-1.09 1.82,-0.854 2.16,-0.471 2.5,-0.118 2.41,0.118 2.16,0.619 1.94,1.06 1.67,1.443 1.32,1.796 1.2,2.298 0.96,2.65 0.59,3.004 0.37,3.475 0.12,3.829 -0.12,6.008 -0.37,5.419 -0.59,4.683 -0.83,4.182 -1.08,3.504 -1.45,2.886 -1.57,2.268 -1.79,1.797 -2.29,2.061 -2.87,2.386 -3.36,2.655 -3.98,2.88 1.21,0.47 1.32,0.36 z m 17.06,58.87 8.64,-5.3 7.93,-5.16 7.19,-4.91 6.48,-4.69 5.64,-4.44 5.06,-4.33 4.19,-4.1 3.49,-3.83 2.75,-3.62 2.4,-3.95 2.04,-4.44 1.94,-4.92 1.42,-5.42 1.33,-5.89 0.95,-6.479 0.74,-6.95 0.34,-7.451 0.13,-7.923 -0.13,-7.333 -0.34,-6.862 -0.61,-6.244 -0.96,-5.625 -1.2,-5.065 -1.33,-4.447 -1.67,-3.947 -2.28,-3.858 -2.9,-3.711 -3.36,-3.475 -1.42,1.06 -1.7,0.972 -1.66,0.972 -1.7,1.06 -1.54,1.208 -1.33,1.443 -1.2,1.679 -0.12,1.561 -0.59,1.796 -0.74,1.679 -0.47,1.826 0.13,1.678 -1.21,6.715 -0.61,6.862 -0.47,6.951 -0.49,6.98 -0.46,7.068 -0.86,7.097 -3.24,6.244 -3.36,6.126 -3.61,6.008 -3.95,6.005 -4.2,5.89 -4.81,5.75 -5.15,5.53 -0.74,1.68 -0.22,1.8 -0.25,1.79 -0.36,1.8 -0.72,1.71 -0.36,2.5 -0.72,2.3 -0.95,2.15 -0.96,2.18 -0.98,2.27 -0.47,2.41 -0.12,2.5 0.37,2.18 0.46,1.92 0.62,1.91 0.46,1.8 0.37,1.94 0.12,2.15 -0.12,2.39 0.25,0.5 0.34,0.47 0.25,0.62 0,0.47 -0.47,0.59 1.08,2.18 z m -23.78,6.01 -1.08,-0.39 0,-1.32 -0.37,-1.18 -0.34,-1.21 -0.37,-1.2 -0.25,-1.21 0,-1.33 0.62,-1.29 2.28,0 0.96,1.29 0.83,1.33 0.47,1.44 0,1.44 -0.47,0.62 -0.25,0.59 -0.24,0.71 -0.22,0.62 -0.25,0.59 -0.61,0.35 -0.71,0.15 z m -5.06,12.84 1.33,-2.3 0.24,-1.56 0.84,-1.44 1.2,-1.18 1.45,-1.09 1.2,-0.74 1.67,0.15 1.57,-0.27 1.45,-0.47 1.42,-0.23 1.57,0.11 2.65,-1.91 2.87,-2.06 3.37,-2.15 -0.49,-1.21 -0.47,-1.06 -0.61,-0.62 -0.84,-0.47 -0.96,-0.47 -0.95,-0.62 -1.08,-0.47 -0.84,-0.62 -0.61,-0.7 -0.25,-0.98 0,-0.94 0.62,-1.32 1.54,-2.18 0.86,-2.15 0.22,-1.92 -0.09,-2.06 -0.5,-2.03 -0.83,-1.92 -0.86,-2.03 -0.96,-2.06 -0.95,-2.03 -0.72,-2.15 1.55,-2.53 0.74,-2.65 0.24,-2.54 -0.37,-2.62 -0.61,-2.65 -0.71,-2.65 -0.96,-2.5 -0.83,-2.65 -0.62,-2.65 -0.24,-2.77 0.12,-2.62 -1.54,-0.62 -1.45,0.26 -1.21,0.71 -1.08,1.09 -0.83,1.32 -0.37,1.3 -0.24,3.39 -0.47,3.24 -0.83,3 -1.08,2.89 -1.21,2.74 -1.2,2.88 -1.08,2.89 -0.86,2.88 -0.71,3.13 -0.24,3.24 0.12,3.59 -0.71,1.56 -0.62,1.56 -0.59,1.44 -0.36,1.56 0.12,1.71 0.83,1.68 -0.71,1.56 -0.83,1.56 -1.08,1.56 -1.08,1.8 -0.96,1.8 -0.61,1.79 -0.13,1.92 0.49,1.94 1.08,1.06 0.84,1.33 0.61,1.44 0.35,1.56 0.49,1.56 0.46,1.56 0.62,1.33 0.95,1.21 1.08,0.94 1.67,0.62 z m -24.25,72.65 -0.95,-1.09 -0.71,-1.18 -0.62,-1.2 -0.12,-1.45 0.12,-1.56 0.49,-0.97 0.59,-0.59 0.98,-0.23 0.96,0 1.08,0.11 1.08,0.12 0.96,-0.12 0.95,-0.23 0.59,-0.74 -1.3,-3.12 -1.69,-3.12 -1.79,-3.24 -1.7,-3.12 -1.2,-3.36 -0.34,-1.68 -0.74,-1.56 -0.83,-1.56 -0.84,-1.44 -0.73,-1.68 -0.35,-1.68 0.13,-1.83 -1.57,-1.79 -0.72,-1.8 -0.12,-1.68 0.37,-1.56 0.59,-1.68 0.95,-1.56 0.96,-1.68 0.96,-1.56 0.98,-1.68 0.59,-1.56 0.25,-1.68 1.32,-3.27 1.55,-3.12 1.81,-2.85 1.92,-2.89 1.91,-2.89 2.04,-2.88 1.81,-3.01 1.8,-3 1.44,-3.12 1.21,-3.36 0.71,-3.5 0.37,-3.72 0.34,0.59 0.61,-2.26 1.21,-2.65 0.71,-2.77 0.49,-2.86 0.12,-3 0.1,-3.13 0.12,-3 0.25,-3.12 -0.59,-1.33 -0.61,-1.32 -0.47,-1.33 0,-1.21 -1.33,-1.67 -0.36,-4.1 -0.84,-3.94 -1.2,-3.6 -1.79,-3.62 -5.43,3.74 -4.78,3.36 -4.44,3.12 -3.86,2.89 -3.24,2.5 -2.75,2.3 -2.28,1.91 -3.12,3.12 -2.77,3.63 -2.65,4.06 -2.38,4.45 -2.28,4.92 -1.57,4.44 -1.21,4.92 -1.08,5.3 -0.71,5.63 -0.37,6.12 -0.12,6.39 0.12,7.93 0.5,7.33 0.71,6.6 0.95,6 1.45,5.39 1.55,4.8 1.94,4.1 2.75,4.33 3.24,3.94 3.73,3.63 4.19,3.24 4.69,3 5.28,2.65 2.03,0.94 z m 37.6,6.6 8.27,-0.24 7.81,-0.59 7.43,-1.2 6.97,-1.56 6.61,-2.04 6.13,-2.53 5.65,-2.88 4.91,-3.13 4.31,-3.35 3.61,-3.48 3,-3.86 2.16,-4.06 1.57,-3.86 1.32,-4.68 1.08,-5.27 0.84,-6.13 0.59,-6.74 0.36,-7.46 0.13,-8.15 0,-9.96 -48.87,0 3.95,6.36 3.37,6.37 3.26,6.47 3.34,6.48 0.37,5.07 -0.37,4.92 -0.84,4.92 -1.08,4.8 -1.2,4.91 -0.96,4.95 -0.83,4.8 -0.25,5.04 0.84,0.47 0.98,0 0.84,-0.24 0.83,-0.23 0.71,-0.12 0.74,0.47 0.59,0.97 0,1.57 0,1.79 -0.25,1.8 -0.59,1.56 -1.08,1.44 -0.71,0.47 -0.86,0.5 -0.83,0.24 -0.84,0 -0.73,-0.35 -0.59,-0.86 -0.49,-0.59 -0.1,-0.5 0.22,-0.47 0.12,-0.59 -0.12,-0.5 -0.47,-1.06 -0.86,-0.62 -0.95,-0.23 -0.96,-0.12 -1.2,0.12 -1.21,0.12 -1.08,0 -1.08,-0.12 -0.95,-1.68 -1.08,-1.21 -1.2,-0.71 -1.33,-0.35 -1.18,-0.12 -1.32,-0.14 -1.33,0 -1.32,-0.12 -1.33,-0.47 -1.32,-0.71 -0.1,-2.06 0.34,-1.8 0.61,-1.68 0.84,-1.44 1.2,-1.56 1.2,-0.85 0.96,-0.24 0.84,0.12 0.73,0.5 0.47,0.59 0.61,0.85 0.47,0.94 0.61,0.86 0.59,0.82 0.71,0.62 0.98,0.35 1.18,-0.58 1.2,-0.62 1.21,-0.83 0.95,-0.97 0.74,-1.09 0.34,-1.32 -0.09,-1.42 -0.37,-2.65 0,-2.65 0.12,-2.77 0.34,-2.74 0.37,-2.77 0.37,-2.76 0.25,-2.77 0,-2.65 -0.37,-2.62 -0.62,-2.54 -1.17,-2.26 -1.7,-2.3 -2.4,-2.03 -0.13,-2.07 -0.71,-1.56 -0.95,-1.44 -1.21,-1.06 -1.32,-1.09 -1.57,-0.97 -1.55,-0.94 -1.45,-0.98 -1.44,-1.08 0,9.63 0,3.24 0.24,0.23 0.25,0.35 -0.37,0.5 -0.22,0.48 0,1.67 0.59,1.8 1.2,1.68 1.08,1.68 0.37,1.8 0,1.59 -0.37,1.56 -0.37,1.41 -0.59,1.44 -8.05,0.12 -1.79,0.5 -2.04,0.12 -1.69,-0.12 -1.57,-0.35 -4.44,0.12 -2.16,-1.45 -1.55,-1.56 -1.32,-1.94 -0.96,-1.92 -0.84,-2.15 -0.86,-2.06 -0.71,-2.03 0,-2.27 0,-2.41 0.37,-2.39 0.59,-2.41 0.83,-2.3 1.45,-2.03 -0.71,-0.71 -0.24,-1.09 0,-1.09 0.12,-1.06 -0.12,-1.09 -0.13,-0.62 -0.46,-0.35 -0.62,-0.24 -0.59,-0.23 -0.49,-0.35 -9.96,9.6 -1.33,1.44 -1.2,1.8 -0.96,1.79 -0.95,1.92 -0.96,1.7 -2.16,1.18 -1.57,1.33 -1.08,1.44 -0.47,1.56 -0.24,1.8 0.12,1.8 0.25,1.82 0.46,1.92 0.62,1.91 0.58,1.91 0.59,1.95 0.37,1.79 0.25,1.8 0,1.68 0.59,1.32 0.49,1.45 0.49,1.56 0.22,1.68 0.49,1.56 0.37,1.44 0.59,1.44 0.83,1.21 1.08,0.94 1.45,0.74 1.91,0.35 0.84,-0.11 0.86,0 0.83,-0.12 0.71,-0.35 0.49,-0.51 0.13,-0.82 0.95,-0.97 0.96,-0.24 1.08,0.12 0.96,0.59 0.95,0.85 0.96,0.98 0.12,1.17 0.25,1.21 0.37,1.21 0.12,1.09 -0.24,1.18 -0.62,0.97 -0.96,0.47 -0.83,0 -0.96,-0.24 -0.95,-0.35 -0.84,-0.24 -1.69,1.68 -1.79,1.33 -2.16,0.94 -2.29,0.62 -2.28,0.35 -2.16,0 -0.86,0.74 -0.34,0.71 -0.25,0.97 0,0.82 0.13,0.97 -0.49,0.36 -0.22,0.12 -0.25,0.23 -0.37,0.12 5.89,1.68 6.24,1.44 6.6,0.97 6.97,0.59 7.21,0.12 z" /></g></g></g></g></svg>